<?xml version="1.0"?>
<svg version="1.1" xmlns="http://www.w3.org/2000/svg" width="400" height="200" style=""><path fill="#0812c7" d="M16.310546875,116.2421875q0-0.966796875,0.0966796875-2.3095703125t0.4404296875-2.2236328125q0.12890625-0.30078125,0.5478515625-0.5908203125t0.880859375-0.3544921875t0.81640625,0.107421875t0.3544921875,0.751953125q0,1.009765625-0.04296875,2.556640625l0,0.666015625q0,1.181640625,0.107421875,2.255859375q0.150390625,1.41796875,0.64453125,2.384765625q0.4296875,0.880859375,1.353515625,0.880859375l0.171875,0q1.267578125-0.0859375,1.869140625-1.052734375t0.81640625-2.298828125q0.193359375-1.224609375,0.193359375-2.578125l0-0.2578125q-0.021484375-1.50390625-0.021484375-2.642578125q0-4.533203125-0.30078125-9.087890625t-0.30078125-9.130859375q0-0.751953125-0.064453125-1.6328125q-0.021484375-0.322265625-0.021484375-0.64453125q0-0.515625,0.064453125-0.98828125q0.107421875-0.751953125,0.5478515625-1.2568359375t1.4931640625-0.5048828125q0.580078125,0,1.0634765625,0.1396484375t0.8701171875,0.5693359375q0.494140625,5.5859375,0.81640625,11.3544921875t0.322265625,11.3974609375q0,1.93359375-0.322265625,3.888671875t-1.181640625,3.5234375t-2.384765625,2.556640625t-3.888671875,0.98828125q-1.41796875,0-2.36328125-0.5048828125t-1.5146484375-1.3857421875t-0.81640625-2.0517578125t-0.2470703125-2.5244140625z M33.42650390625,106.810546875q0-1.267578125,0.1396484375-3.072265625t0.515625-3.759765625t1.009765625-3.888671875t1.6220703125-3.416015625t2.36328125-2.341796875q1.138671875-0.708984375,2.62109375-0.708984375q0.30078125,0,0.623046875,0.04296875q3.73828125,0.34375,5.7470703125,1.7080078125t2.9326171875,3.458984375t1.07421875,4.76953125t0.150390625,5.6396484375q0,2.384765625-0.4404296875,5.1884765625t-1.5576171875,5.2314453125t-3.0830078125,4.0498046875t-4.9951171875,1.6220703125q-1.84765625,0-3.2333984375-0.6767578125t-2.3525390625-1.8046875t-1.58984375-2.62109375t-0.9453125-3.09375t-0.4619140625-3.2333984375t-0.1396484375-3.09375z M37.78783203125,105.84375q0,0.923828125,0.021484375,2.2666015625t0.1826171875,2.8251953125t0.4189453125,2.9541015625t0.7626953125,2.6748046875t1.2783203125,1.9765625t1.869140625,0.81640625l0.107421875,0q0.98828125,0,1.76171875-0.751953125q0.81640625-0.794921875,1.4501953125-1.912109375t1.095703125-2.3525390625t0.8271484375-2.1162109375l-0.0859375,0.193359375q0.623046875-1.9765625,0.837890625-4.0498046875t0.21484375-4.0927734375q0-0.966796875-0.12890625-2.3310546875t-0.4189453125-2.8466796875t-0.751953125-2.9326171875t-1.1708984375-2.5244140625t-1.654296875-1.6328125q-0.6875-0.408203125-1.525390625-0.4296875q-0.322265625,0-0.64453125,0.064453125q-1.095703125,0.21484375-1.869140625,1.07421875t-1.2568359375,2.1162109375t-0.7412109375,2.75t-0.3974609375,3.0078125t-0.1611328125,2.900390625t-0.021484375,2.3525390625z M47.47728515625,112.4609375l0-0.04296875l0,0.04296875z M56.71921875,91.6748046875q-0.0537109375-0.6552734375,0.0859375-1.138671875t0.55859375-0.794921875t1.3427734375-0.3115234375l3.458984375,0q0.708984375,0,1.8583984375,0.0751953125t2.470703125,0.2255859375t2.6318359375,0.4619140625t2.3955078125,0.7734375t1.76171875,1.138671875t0.6767578125,1.6005859375q0,1.310546875-0.7626953125,2.4599609375t-1.912109375,2.0732421875t-2.427734375,1.6435546875t-2.2880859375,1.2998046875q3.99609375,0.880859375,6.251953125,3.65234375t2.255859375,6.91796875q0,2.19140625-0.837890625,4.3291015625t-2.2880859375,3.8564453125t-3.4375,2.771484375t-4.2646484375,1.052734375q-0.30078125,0-0.6767578125-0.064453125t-0.6875-0.2041015625t-0.537109375-0.3974609375t-0.2255859375-0.666015625q0-1.890625,2.041015625-1.890625q0.34375,0,0.8056640625,0.0966796875t0.7197265625,0.3974609375q1.181640625-0.494140625,2.1591796875-1.568359375t1.654296875-2.3955078125t1.052734375-2.771484375t0.3759765625-2.6318359375q0-1.41796875-0.4189453125-2.8896484375t-1.2138671875-2.728515625t-1.955078125-2.1162109375t-2.6640625-1.07421875q-0.38671875-0.04296875-0.8486328125-0.064453125l-0.923828125-0.04296875t-0.90234375-0.12890625t-0.7626953125-0.34375q0.171875,3.56640625,0.4404296875,7.111328125t0.7197265625,7.111328125q0.171875,0.171875,0.236328125,0.5048828125t0.107421875,0.708984375t0.04296875,0.7197265625l0,0.580078125q0,0.38671875-0.2578125,0.6337890625t-0.6123046875,0.3974609375t-0.751953125,0.193359375t-0.6982421875,0.04296875q-0.966796875,0-1.482421875-0.2578125t-0.73046875-0.751953125t-0.279296875-1.1279296875t-0.107421875-1.3857421875q-0.580078125-5.994140625-0.837890625-11.859375t-0.2578125-11.859375q0-0.708984375-0.0537109375-1.3642578125z M60.6830859375,90.76171875q0,2.642578125,0.171875,5.2958984375t0.30078125,5.2958984375q0.966796875-0.580078125,2.53515625-1.3642578125t3.0400390625-1.7294921875t2.5244140625-2.083984375t1.052734375-2.470703125q0-1.052734375-1.24609375-1.6005859375t-2.900390625-0.81640625t-3.2333984375-0.3330078125t-2.2451171875-0.193359375z"/><path fill="#6795b5" d="M85.33419921875,111.4296875q0-0.4296875,1.1708984375-0.64453125t2.75-0.3115234375t3.2763671875-0.0751953125t2.75,0.021484375q0.537109375,0,1.2568359375,0.2041015625t0.7197265625,0.6767578125q0,0.38671875-0.34375,0.5693359375t-0.8056640625,0.2685546875t-0.90234375,0.0859375l-0.5693359375,0q-1.50390625,0-2.8251953125-0.064453125t-2.7392578125-0.064453125q-0.4296875,0-0.8701171875,0.04296875t-0.8271484375,0.04296875l-0.6123046875,0t-0.666015625-0.064453125t-0.537109375-0.21484375t-0.2255859375-0.47265625z M102.53609375,117.91796875q0-0.751953125,0.515625-0.9560546875t1.1171875-0.2041015625q1.052734375,0,1.783203125,0.9453125t1.3857421875,2.0732421875t1.2998046875,2.0732421875t1.525390625,0.9453125q0.666015625,0,1.2138671875-0.3330078125t0.9453125-0.837890625t0.6123046875-1.138671875t0.21484375-1.2568359375q0-1.6328125-0.6552734375-3.373046875t-1.67578125-3.587890625t-2.1591796875-3.78125t-2.1484375-3.931640625t-1.67578125-4.0712890625t-0.666015625-4.1787109375q0-3.158203125,1.890625-4.8984375t4.984375-1.740234375q1.052734375,0,2.126953125,0.30078125t1.9765625,0.90234375t1.4716796875,1.482421875t0.5693359375,2.0625q0,0.38671875-0.5693359375,0.5048828125t-0.8271484375,0.1181640625q-0.38671875,0-0.837890625-0.0966796875t-0.580078125-0.5263671875t-0.365234375-0.98828125t-0.5908203125-1.0419921875t-0.837890625-0.837890625t-1.0634765625-0.3544921875q-0.966796875,0-1.6435546875,0.3974609375t-1.095703125,1.0634765625t-0.623046875,1.4931640625t-0.2041015625,1.7080078125q0,2.0625,0.708984375,4.1572265625t1.76171875,4.16796875t2.2880859375,4.0927734375t2.2880859375,3.931640625t1.76171875,3.73828125t0.708984375,3.458984375q0,1.4609375-0.6875,2.470703125t-1.740234375,1.6435546875t-2.3310546875,0.923828125t-2.5029296875,0.2900390625q-1.310546875,0-2.685546875-0.5263671875t-2.470703125-1.4501953125t-1.8046875-2.1591796875t-0.708984375-2.6748046875z M120.55439453125,91.427734375q0-0.30078125,0.4189453125-0.4619140625t0.5478515625-0.1611328125l0.794921875-0.12890625q0.794921875-0.12890625,1.611328125-0.2255859375t1.58984375-0.1826171875q2.728515625-0.34375,5.45703125-0.6767578125t5.5-0.3330078125q0.21484375,0,0.5908203125,0.021484375t0.751953125,0.1181640625t0.64453125,0.2685546875t0.2685546875,0.47265625q0,0.21484375-0.2041015625,0.3759765625t-0.4833984375,0.2470703125t-0.5693359375,0.107421875t-0.4619140625,0.021484375l-0.3759765625,0t-0.3759765625-0.0859375q-1.138671875,0-2.2451171875,0.107421875t-2.2451171875,0.193359375q0.30078125,0.34375,0.322265625,0.966796875t0.04296875,1.07421875q0,7.60546875,0.107421875,15.125t0.193359375,15.189453125l0,0.04296875q-0.708984375,0.623046875-1.2138671875,0.794921875t-1.0205078125,0.171875q-0.494140625,0-0.9990234375-0.1826171875t-1.2138671875-0.7841796875l0-0.04296875l0.171875-16.865234375q0-1.67578125-0.04296875-3.6953125t-0.04296875-4.0927734375t0.064453125-4.0068359375t0.34375-3.373046875q-1.267578125,0.12890625-2.685546875,0.38671875q-1.224609375,0.21484375-2.341796875,0.21484375l-0.38671875,0q-0.0859375,0-0.5048828125,0.021484375t-0.859375-0.021484375t-0.794921875-0.171875t-0.3544921875-0.4296875z M141.6664453125,121.505859375q0-0.12890625,0.0859375-0.9130859375t0.2255859375-1.912109375t0.3115234375-2.427734375t0.30078125-2.4599609375t0.2255859375-2.041015625t0.0966796875-1.181640625q-0.171875-0.0859375-0.4189453125-0.2470703125t-0.2470703125-0.3759765625q0-0.30078125,0.2900390625-0.4833984375t0.5048828125-0.2685546875q0.0859375-1.095703125,0.21484375-3.05078125t0.3974609375-4.2216796875t0.751953125-4.59765625t1.2783203125-4.232421875t1.912109375-3.1044921875t2.75-1.203125t2.70703125,1.03125t1.7509765625,2.685546875t1.03125,3.673828125t0.537109375,4.017578125t0.2255859375,3.73828125t0.0859375,2.79296875q0.04296875,0.666015625,0.322265625,0.8916015625t0.6123046875,0.3115234375t0.6015625,0.193359375t0.2685546875,0.537109375q0,0.494140625-0.6015625,0.6875t-0.9453125,0.236328125q0.21484375,2.685546875,0.5908203125,5.28515625t0.9990234375,5.2421875q0.0859375,0.494140625,0.236328125,0.9990234375t0.150390625,0.9775390625q0,0.34375-0.236328125,0.5693359375t-0.6123046875,0.3544921875t-0.751953125,0.171875t-0.6337890625,0.04296875q-0.966796875,0-1.6328125-0.365234375t-0.880859375-1.396484375q-0.580078125-2.771484375-1.138671875-5.822265625q-0.47265625-2.642578125-0.47265625-5.134765625q0-0.38671875,0.021484375-0.7734375q-1.8046875,0-3.630859375,0.0859375t-3.501953125,0.64453125q-0.04296875,0.580078125-0.21484375,2.19140625t-0.38671875,3.458984375t-0.4404296875,3.5341796875t-0.2685546875,2.3955078125q-0.04296875,0.30078125-0.4404296875,0.5693359375t-0.859375,0.2900390625t-0.81640625-0.2900390625t-0.3544921875-1.1064453125z M145.6840234375,108.486328125q1.67578125-0.38671875,3.3623046875-0.451171875t3.4052734375-0.150390625q-0.0859375-0.537109375-0.04296875-1.1064453125t0.04296875-1.1494140625q0-1.267578125-0.064453125-2.943359375t-0.193359375-3.39453125t-0.3330078125-3.3837890625t-0.4619140625-2.96484375t-0.5478515625-2.0732421875t-0.6337890625-0.7734375q-0.666015625,0.04296875-1.2568359375,1.1494140625t-1.07421875,2.814453125t-0.880859375,3.82421875t-0.666015625,4.1357421875t-0.4404296875,3.759765625t-0.21484375,2.70703125z M163.35857421875,110.95703125l0-3.39453125q0-3.5234375,0.1181640625-6.9931640625t0.2041015625-6.9931640625q0-0.666015625-0.04296875-1.482421875q-0.021484375-0.236328125-0.021484375-0.451171875q0-0.537109375,0.0859375-1.052734375q0.107421875-0.6875,0.5263671875-1.181640625t1.3857421875-0.494140625q0.794921875,0,1.2138671875,0.171875t0.5908203125,0.5048828125t0.193359375,0.837890625t0.021484375,1.1708984375q0,3.56640625-0.0859375,7.154296875q-0.064453125,2.384765625-0.064453125,4.76953125q0,1.203125,0.021484375,2.40625q0.04296875,3.56640625,0.3330078125,7.1328125t0.9775390625,7.046875q2.1484375-0.0859375,4.296875-0.21484375t4.296875-0.12890625q0.21484375,0,0.6123046875,0.04296875t0.794921875,0.150390625t0.6767578125,0.279296875t0.279296875,0.494140625q0,0.21484375-0.193359375,0.365234375t-0.365234375,0.236328125l-0.04296875,0q-0.34375,0.171875-1.3642578125,0.3330078125t-2.3203125,0.2470703125t-2.728515625,0.150390625t-2.685546875,0.107421875t-2.1806640625,0.064453125t-1.138671875,0.021484375l-0.193359375,0q-0.515625,0-1.16015625-0.171875q-0.7734375-0.21484375-0.966796875-0.837890625q-0.38671875-1.58984375-0.6123046875-3.2978515625t-0.34375-3.4697265625t-0.1181640625-3.5234375z M182.902265625,110.95703125l0-3.39453125q0-3.5234375,0.1181640625-6.9931640625t0.2041015625-6.9931640625q0-0.666015625-0.04296875-1.482421875q-0.021484375-0.236328125-0.021484375-0.451171875q0-0.537109375,0.0859375-1.052734375q0.107421875-0.6875,0.5263671875-1.181640625t1.3857421875-0.494140625q0.794921875,0,1.2138671875,0.171875t0.5908203125,0.5048828125t0.193359375,0.837890625t0.021484375,1.1708984375q0,3.56640625-0.0859375,7.154296875q-0.064453125,2.384765625-0.064453125,4.76953125q0,1.203125,0.021484375,2.40625q0.04296875,3.56640625,0.3330078125,7.1328125t0.9775390625,7.046875q2.1484375-0.0859375,4.296875-0.21484375t4.296875-0.12890625q0.21484375,0,0.6123046875,0.04296875t0.794921875,0.150390625t0.6767578125,0.279296875t0.279296875,0.494140625q0,0.21484375-0.193359375,0.365234375t-0.365234375,0.236328125l-0.04296875,0q-0.34375,0.171875-1.3642578125,0.3330078125t-2.3203125,0.2470703125t-2.728515625,0.150390625t-2.685546875,0.107421875t-2.1806640625,0.064453125t-1.138671875,0.021484375l-0.193359375,0q-0.515625,0-1.16015625-0.171875q-0.7734375-0.21484375-0.966796875-0.837890625q-0.38671875-1.58984375-0.6123046875-3.2978515625t-0.34375-3.4697265625t-0.1181640625-3.5234375z"/></svg>
